<?xml version="1.0" encoding="utf-8"?>
<!-- Generator: Adobe Illustrator 13.0.2, SVG Export Plug-In . SVG Version: 6.00 Build 14948)  -->
<!DOCTYPE svg PUBLIC "-//W3C//DTD SVG 1.1//EN" "http://www.w3.org/Graphics/SVG/1.1/DTD/svg11.dtd">
<svg version="1.1" id="Layer_1" xmlns="http://www.w3.org/2000/svg" xmlns:xlink="http://www.w3.org/1999/xlink" x="0px" y="0px"
	 width="473.967px" height="581.089px" viewBox="0 0 473.967 581.089" enable-background="new 0 0 473.967 581.089"
	 xml:space="preserve">
<path opacity="0.4045" fill="#808080" d="M82.052,469.039c61.179-23.336,164.874-33.31,231.61-22.276
	c66.736,11.032,116.837,33.98,111.903,51.257c-4.934,17.275-18.366,30.311-30.003,29.114s-28.255-5.699-37.118-10.057
	c-8.863-4.356-22.082-4.852-29.525-1.105c-7.444,3.747-23.064,21.538-34.89,39.737c-11.826,18.2-38.824,29.053-60.302,24.24
	s-43.005-21.942-48.083-38.26c-5.078-16.317-28.935-28.616-53.288-27.471s-70.282,0.955-102.586-0.426
	S20.874,492.375,82.052,469.039z"/>
<circle fill="#FF0000" cx="353.298" cy="446.982" r="27.966"/>
<circle fill="none" stroke="#000000" stroke-width="4.1996" stroke-linecap="round" stroke-linejoin="round" stroke-miterlimit="10" cx="353.298" cy="446.982" r="27.966"/>
<path fill="#FFFFFF" d="M375.628,449.648c17.499-10.924,39.323-7.562,48.746,7.509s3.39,34.781-13.477,44.025
	c-16.866,9.243-38.69,5.882-48.746-7.509S358.129,460.572,375.628,449.648z"/>
<path fill="none" stroke="#000000" stroke-width="4.1996" stroke-linecap="round" stroke-linejoin="round" stroke-miterlimit="10" d="
	M375.628,449.648c17.499-10.924,39.323-7.562,48.746,7.509s3.39,34.781-13.477,44.025c-16.866,9.243-38.69,5.882-48.746-7.509
	S358.129,460.572,375.628,449.648z"/>
<path fill="#0026F5" d="M165.614,489.097c-12.857-12.198-47.793-11.625-78.031,1.278c-30.238,12.904-45.35-16.3-33.755-65.229
	c11.596-48.929,38.269-71.716,59.576-50.896l0,0c0,0,0.475-5.265,1.06-11.759c0.585-6.495,1.06-11.759,1.06-11.759l0,0
	c-22.231-32.981-10.744-65.076,25.658-71.684s92.523,1.721,125.352,18.605c32.828,16.883,73.348,30.317,90.502,30.005
	c17.155-0.312,35.91,26.297,41.891,59.432c5.979,33.136,10.921,62.359,11.036,65.273c0.114,2.914-8.631,9.07-19.533,13.751
	c-10.903,4.681-21.126,6.676-22.832,4.456c-1.707-2.22-12.201-18.604-23.44-36.597l0,0l0,0
	c5.526,35.766-20.194,82.396-57.447,104.155c-37.253,21.758-74.25,24.544-82.633,6.225
	C195.691,526.034,178.472,501.294,165.614,489.097z"/>
<path fill="none" stroke="#000000" stroke-width="4.1996" stroke-linecap="round" stroke-linejoin="round" stroke-miterlimit="10" d="
	M165.614,489.097c-12.857-12.198-47.793-11.625-78.031,1.278c-30.238,12.904-45.35-16.3-33.755-65.229
	c11.596-48.929,38.269-71.716,59.576-50.896l0,0c0,0,0.475-5.265,1.06-11.759c0.585-6.495,1.06-11.759,1.06-11.759l0,0
	c-22.231-32.981-10.744-65.076,25.658-71.684s92.523,1.721,125.352,18.605c32.828,16.883,73.348,30.317,90.502,30.005
	c17.155-0.312,35.91,26.297,41.891,59.432c5.979,33.136,10.921,62.359,11.036,65.273c0.114,2.914-8.631,9.07-19.533,13.751
	c-10.903,4.681-21.126,6.676-22.832,4.456c-1.707-2.22-12.201-18.604-23.44-36.597l0,0l0,0
	c5.526,35.766-20.194,82.396-57.447,104.154c-37.254,21.759-74.25,24.545-82.633,6.226
	C195.691,526.034,178.472,501.294,165.614,489.097z"/>
<path fill="#FFFFFF" d="M136.438,328.561c24.328-27.407,77.458-19.464,118.67,17.741c41.212,37.206,43.195,83.258,4.43,102.864
	c-38.765,19.604-91.896,11.661-118.67-17.742C114.094,402.021,112.11,355.967,136.438,328.561z"/>
<path fill="none" stroke="#000000" stroke-width="4.1996" stroke-linecap="round" stroke-linejoin="round" stroke-miterlimit="10" d="
	M136.438,328.561c24.328-27.407,77.458-19.464,118.67,17.741c41.212,37.206,43.195,83.258,4.43,102.864
	c-38.765,19.604-91.896,11.661-118.67-17.742C114.094,402.021,112.11,355.967,136.438,328.561L136.438,328.561z"/>
<path fill="#0026F5" d="M163.282,319.923c-79.313-67.911-89.33-182.57-22.371-256.099l0,0
	C207.869-9.705,326.254-18.84,405.333,43.419c79.078,62.26,89.095,176.919,22.371,256.099l0,0
	C360.981,378.699,242.595,387.834,163.282,319.923z"/>
<path fill="none" stroke="#000000" stroke-width="4.1996" stroke-linecap="round" stroke-linejoin="round" stroke-miterlimit="10" d="
	M163.282,319.923c-79.313-67.911-89.33-182.57-22.371-256.099l0,0C207.869-9.705,326.255-18.84,405.333,43.419
	c79.079,62.26,89.095,176.919,22.371,256.099C360.981,378.699,242.595,387.834,163.282,319.923z"/>
<path fill="#FF0000" d="M128.19,279.004L128.19,279.004c15.276,15.178,38.683,38.135,52.282,51.275l0,0
	c13.599,13.14,47.091,23.816,74.807,23.846c27.715,0.029,62.069-2.298,76.731-5.197c14.663-2.899,36.637-7.097,49.081-9.376l0,0
	c-0.8,5.771-3.665,10.808-6.4,11.25c-2.735,0.442-16.526,3.714-30.803,7.308c-14.277,3.594-41.569,7.87-60.96,9.549
	c-19.39,1.68-50.403-3.334-69.269-11.198s-40.343-18.498-47.97-23.751c-7.627-5.253-19.626-14.628-26.801-20.938
	s-14.684-14.658-16.773-18.644S122.746,282.818,128.19,279.004z"/>
<path fill="none" stroke="#000000" stroke-width="4.1996" stroke-linecap="round" stroke-linejoin="round" stroke-miterlimit="10" d="
	M128.19,279.004L128.19,279.004c15.275,15.178,38.683,38.135,52.282,51.275l0,0c13.599,13.141,47.091,23.817,74.806,23.846
	c27.716,0.029,62.07-2.297,76.732-5.197c14.663-2.899,36.637-7.097,49.081-9.376l0,0c-0.8,5.771-3.665,10.809-6.4,11.251
	c-2.735,0.442-16.526,3.714-30.803,7.308c-14.277,3.594-41.569,7.869-60.96,9.549c-19.39,1.679-50.403-3.334-69.269-11.199
	c-18.866-7.864-40.343-18.498-47.97-23.751c-7.627-5.253-19.626-14.627-26.801-20.938s-14.684-14.658-16.773-18.644
	C120.026,289.142,122.746,282.818,128.19,279.004z"/>
<path fill="#FFFFFF" d="M117.45,135.667c43.166-61.223,146.508-72.791,230.821-25.839c84.313,46.953,112.302,133.312,62.516,192.888
	C361,362.292,257.658,373.861,179.965,328.555C102.273,283.248,74.284,196.889,117.45,135.667z"/>
<path fill="none" stroke="#000000" stroke-width="4.1996" stroke-linecap="round" stroke-linejoin="round" stroke-miterlimit="10" d="
	M117.45,135.667c43.166-61.223,146.508-72.792,230.821-25.839c84.313,46.953,112.303,133.312,62.516,192.888
	s-153.129,71.145-230.821,25.839C102.273,283.248,74.284,196.889,117.45,135.667z"/>
<path fill="#FFFFFF" d="M198.572,67.02c11.978-25.488,37.791-39.227,57.655-30.686c19.864,8.541,26.257,36.127,14.279,61.615
	s-37.791,39.227-57.655,30.686C192.987,120.094,186.594,92.508,198.572,67.02z"/>
<path fill="none" stroke="#000000" stroke-width="4.1996" stroke-linecap="round" stroke-linejoin="round" stroke-miterlimit="10" d="
	M198.572,67.02c11.978-25.488,37.791-39.227,57.655-30.686c19.864,8.541,26.257,36.127,14.279,61.615s-37.791,39.227-57.655,30.686
	C192.987,120.093,186.594,92.507,198.572,67.02z"/>
<path fill="#FFFFFF" d="M271.926,98.941c2.99-28.003,22.896-49.423,44.46-47.843s36.621,25.562,33.631,53.565
	c-2.99,28.003-22.896,49.423-44.46,47.843S268.935,126.944,271.926,98.941z"/>
<path fill="none" stroke="#000000" stroke-width="4.1996" stroke-linecap="round" stroke-linejoin="round" stroke-miterlimit="10" d="
	M271.926,98.941c2.99-28.003,22.896-49.423,44.46-47.843s36.621,25.562,33.631,53.565c-2.99,28.003-22.896,49.423-44.46,47.843
	S268.936,126.944,271.926,98.941z"/>
<path d="M302.298,114.28c1.317-9.203,7.122-16.1,12.967-15.404c5.844,0.696,9.513,8.721,8.196,17.924
	c-1.317,9.203-7.122,16.1-12.966,15.404C304.652,131.508,300.982,123.483,302.298,114.28z"/>
<path d="M231.881,95.55c2.403-8.981,8.988-15.138,14.708-13.751c5.719,1.387,8.407,9.791,6.004,18.772
	c-2.404,8.981-8.988,15.138-14.708,13.751C232.166,112.936,229.478,104.532,231.881,95.55z"/>
<path fill="#FFFFFF" d="M308.318,115.404c0.522-3.651,2.826-6.387,5.144-6.111c2.318,0.276,3.774,3.459,3.252,7.111
	c-0.522,3.651-2.825,6.387-5.144,6.111S307.795,119.055,308.318,115.404z"/>
<path fill="#FFFFFF" d="M238.631,97.181c0.54-3.77,2.917-6.595,5.311-6.31s3.897,3.572,3.357,7.342
	c-0.54,3.77-2.917,6.595-5.311,6.31S238.092,100.951,238.631,97.181z"/>
<circle fill="#FF0000" cx="244.679" cy="146.147" r="27.966"/>
<circle fill="none" stroke="#000000" stroke-width="4.1996" stroke-linecap="round" stroke-linejoin="round" stroke-miterlimit="10" cx="244.679" cy="146.147" r="27.966"/>
<circle fill="#FFFFFF" cx="241.766" cy="141.05" r="10.15"/>
<path fill="none" stroke="#000000" stroke-width="4.1996" stroke-linecap="round" stroke-linejoin="round" stroke-miterlimit="10" d="
	M236.013,174.915L236.013,174.915c-6.476,26.445-16.975,69.322-23.45,95.768"/>
<path fill="none" stroke="#000000" stroke-width="4.1996" stroke-linecap="round" stroke-linejoin="round" stroke-miterlimit="10" d="
	M294.275,181.833c0,0,48.518-0.652,108.367-1.457"/>
<path fill="none" stroke="#000000" stroke-width="4.1996" stroke-linecap="round" stroke-linejoin="round" stroke-miterlimit="10" d="
	M296.824,201.861c0,0,50.311,11.086,112.373,24.761"/>
<path fill="none" stroke="#000000" stroke-width="4.1996" stroke-linecap="round" stroke-linejoin="round" stroke-miterlimit="10" d="
	M293.547,221.16c0,0,42.486,19.727,94.894,44.061"/>
<path fill="none" stroke="#000000" stroke-width="4.1996" stroke-linecap="round" stroke-linejoin="round" stroke-miterlimit="10" d="
	M89.413,170.957c0,0,32.455,5.051,72.489,11.283"/>
<path fill="none" stroke="#000000" stroke-width="4.1996" stroke-linecap="round" stroke-linejoin="round" stroke-miterlimit="10" d="
	M93.977,123.242c0,0,36.169,16.197,80.787,36.177"/>
<path fill="none" stroke="#000000" stroke-width="4.1996" stroke-linecap="round" stroke-linejoin="round" stroke-miterlimit="10" d="
	M128.829,88.39c0,0,27.067,24.371,60.457,54.433"/>
<path fill="none" stroke="#000000" stroke-width="4.1996" stroke-linecap="round" stroke-linejoin="round" stroke-miterlimit="10" d="
	M152.542,163.981L152.542,163.981c-18.186-22.375-41.045-17.271-51.059,11.399c-10.013,28.67,10.872,62.605,46.646,75.796
	c35.774,13.19,101.899,28.244,147.695,33.624c45.794,5.379,92.729-27.744,104.83-73.983"/>
<path fill="#FFFFFF" d="M133.228,361.917c21.626,26.39,84.308,48.719,140.002,49.872l0,0
	c-21.461,28.311-64.846,42.289-96.903,31.224C144.271,431.947,124.975,395.639,133.228,361.917L133.228,361.917z"/>
<path fill="none" stroke="#000000" stroke-width="4.1996" stroke-linecap="round" stroke-linejoin="round" stroke-miterlimit="10" d="
	M133.228,361.917c21.626,26.39,84.308,48.718,140.002,49.872l0,0c-21.461,28.311-64.846,42.289-96.903,31.224
	C144.271,431.947,124.975,395.639,133.228,361.917L133.228,361.917z"/>
<path fill="#FFFFFF" d="M20.893,360.111c24.092-21.284,59.088-7.042,78.166,31.812c19.077,38.853,18.007,83.952-2.392,100.731
	c-20.398,16.778-55.394,2.536-78.165-31.812C-4.27,426.495-3.199,381.396,20.893,360.111z"/>
<path fill="none" stroke="#000000" stroke-width="4.1996" stroke-linecap="round" stroke-linejoin="round" stroke-miterlimit="10" d="
	M20.893,360.111c24.092-21.284,59.088-7.042,78.166,31.812c19.077,38.854,18.007,83.952-2.392,100.731
	c-20.398,16.778-55.394,2.536-78.165-31.812C-4.27,426.495-3.199,381.396,20.893,360.111z"/>
<path fill="#FFFFFF" d="M200.393,430.036c27.153-18.931,66.158-3.733,87.119,33.942c20.961,37.677,12.828,81.058-18.167,96.895
	s-69.999,0.641-87.119-33.943C165.106,492.346,173.239,448.965,200.393,430.036z"/>
<path fill="none" stroke="#000000" stroke-width="4.1996" stroke-linecap="round" stroke-linejoin="round" stroke-miterlimit="10" d="
	M200.393,430.035c27.153-18.93,66.158-3.732,87.119,33.943c20.961,37.677,12.828,81.058-18.167,96.895s-69.999,0.641-87.119-33.943
	C165.106,492.346,173.239,448.965,200.393,430.035z"/>
<path fill="none" stroke="#000000" stroke-width="4.1996" stroke-linecap="round" stroke-linejoin="round" stroke-miterlimit="10" d="
	M185.772,371.846c0,0-0.153,2.802-0.342,6.259l-0.524,9.592"/>
<path fill="none" stroke="#000000" stroke-width="4.1996" stroke-linecap="round" stroke-linejoin="round" stroke-miterlimit="10" d="
	M115.233,350.543L115.233,350.543c0.408-14.29,6.163-34.15,12.853-44.357"/>
<path fill="none" stroke="#000000" stroke-width="4.1996" stroke-linecap="round" stroke-linejoin="round" stroke-miterlimit="10" d="
	M343.262,433.275L343.262,433.275c-4.333-8.024-7.488-20.831-7.048-28.604"/>
<path fill="none" stroke="#000000" stroke-width="4.1996" stroke-linecap="round" stroke-linejoin="round" stroke-miterlimit="10" d="
	M277.787,438.321L277.787,438.321c4.784-1.137,11.893-0.992,15.879,0.321"/>
<circle fill="#FFF424" cx="192.913" cy="362.981" r="27.06"/>
<circle fill="none" stroke="#000000" stroke-width="4.1996" stroke-linecap="round" stroke-linejoin="round" stroke-miterlimit="10" cx="192.913" cy="362.981" r="27.06"/>
<path fill="#FFF424" d="M167.988,342.881c1.864-2.609,5.977-3.673,9.187-2.377l16.01,6.465c3.21,1.296,8.325,3.596,11.425,5.136
	l15.053,7.479c3.1,1.54,4.77,4.964,3.728,7.648c-1.041,2.684-4.425,3.665-7.557,2.192l-15.41-7.247
	c-3.133-1.473-8.282-3.698-11.502-4.97l-18.481-7.299C167.222,348.636,166.124,345.49,167.988,342.881z"/>
<path fill="none" stroke="#000000" stroke-width="4.1996" stroke-linecap="round" stroke-linejoin="round" stroke-miterlimit="10" d="
	M167.987,342.881c1.864-2.609,5.978-3.673,9.188-2.377l16.01,6.465c3.21,1.296,8.325,3.596,11.425,5.136l15.053,7.479
	c3.1,1.54,4.769,4.964,3.728,7.648c-1.041,2.684-4.425,3.665-7.557,2.192l-15.41-7.247c-3.133-1.473-8.282-3.698-11.502-4.97
	l-18.481-7.299C167.222,348.636,166.124,345.49,167.987,342.881z"/>
<ellipse transform="matrix(-0.9659 -0.2588 0.2588 -0.9659 270.438 769.4243)" fill="#808080" cx="185.868" cy="366.91" rx="7.553" ry="4.493"/>
<path fill="none" stroke="#000000" stroke-width="4.1996" stroke-linecap="round" stroke-linejoin="round" stroke-miterlimit="10" d="
	M178.573,364.955c0.642-2.397,4.429-3.465,8.458-2.385l0,0c4.029,1.08,6.774,3.898,6.132,6.295s-4.429,3.465-8.458,2.385l0,0
	C180.676,370.17,177.931,367.352,178.573,364.955z"/>
</svg>
